<svg xmlns="http://www.w3.org/2000/svg" viewBox="0 0 2000 3000"><g fill="none" stroke="#000" stroke-linecap="round"><path d="M522.074-47.572v-46.75m0 121v-46.75m-653.125-239.25h-61.875m116.875 0h-55m426.25 0h-55m116.875 0h-61.875m-488.125 451h550m-550-451c-91.127 0-165 73.873-165 165m0 0v46.75m-24.75 0h24.75m-24.75 0v27.5m0 0h24.75m0 0v46.75m0 0c0 91.127 73.873 165 165 165m550 0c91.127 0 165-73.873 165-165m0-46.75h24.75m0-27.5v27.5m-24.75-27.5h24.75m-24.75-46.75c0-91.127-73.873-165-165-165m-433.125-52.25v52.25m316.25 0v-52.25m0 0h-316.25m144.375 379.5h27.5m0-17.6h-27.5m27.5 17.6v-17.6m-27.5 0v17.6m0-121h27.5m0-17.6h-27.5m27.5 17.6v-17.6m-27.5 0v17.6m-247.5-17.6h-27.5m0 17.6h27.5m0 0v-17.6m-27.5 0v17.6m96.25-17.6h-27.5m0 17.6h27.5m0 0v-17.6m-27.5 0v17.6m68.75 0h27.5m0-17.6h-27.5m27.5 17.6v-17.6m-27.5 0v17.6m96.25-17.6h-27.5m0 17.6h27.5m0 0v-17.6m-27.5 0v17.6m165-17.6h-27.5m0 17.6h27.5m0 0v-17.6m-27.5 0v17.6m68.75 121h27.5m0-17.6h-27.5m27.5 17.6v-17.6m-27.5 0v17.6m-316.25-17.6h-27.5m0 17.6h27.5m0 0v-17.6m-27.5 0v17.6m68.75 0h27.5m0-17.6h-27.5m27.5 17.6v-17.6m-27.5 0v17.6m96.25-17.6h-27.5m0 17.6h27.5m0 0v-17.6m-27.5 0v17.6m165-17.6h-27.5m0 17.6h27.5m0 0v-17.6m-27.5 0v17.6m-343.75 0h27.5m0-17.6h-27.5m27.5 17.6v-17.6m-27.5 0v17.6m412.5-121h27.5m0-17.6h-27.5m27.5 17.6v-17.6m-27.5 0v17.6m96.25-17.6h-27.5m0 17.6h27.5m0 0v-17.6m-27.5 0v17.6m96.25-17.6h-27.5m0 17.6h27.5m0 0v-17.6m-27.5 0v17.6m-41.25 103.4h-27.5m0 17.6h27.5m0 0v-17.6m-27.5 0v17.6m68.75 0h27.5m0-17.6h-27.5m27.5 17.6v-17.6m-27.5 0v17.6m361.771 66h168.42m-168.42 16.5v-16.5m168.42 0v16.5m0 0h-168.42m325.195-9.68v-442.151m0 0v-34.925m-2062.32 34.925v-34.925m34.921-34.925H995.362m34.928 302.451h292.25m0 0H1397M995.362-371.253c19.288 0 34.928 15.637 34.928 34.925M-1032.03-200.84v4.212m34.921-174.625c-19.291 0-34.921 15.637-34.921 34.925m-290.51 267.526h290.51m-364.97 0h74.46m2352.83 209.55v90.805m0 0v69.85m0 69.85h292.25m-309.72 0h17.47m-17.46 0h-17.467M-1032.03 140.748v90.805m2062.32 69.85v34.925m-2043.11 34.925h15.711m1992.472 0H-997.109m2319.649 0H1397m-2429.03-139.7v69.85m2027.392 69.85c19.288 0 34.928-15.637 34.928-34.925m-2062.32 34.925h19.21m-309.72 0h290.51m0-69.85v34.925M-1397 371.253h74.46m325.431 0c-19.291 0-34.921-15.637-34.921-34.925m0-195.58V-200.84m0 0v-100.563m0 0v-34.925M1397-68.802v209.55m-2794-209.55v209.55m2794 0v230.505m-2794-230.505v230.505m2064.755-219.45v-19.25m0 0c0-17.922 14.528-32.45 32.45-32.45m0 0h178.2m0 0c17.922 0 32.45 14.528 32.45 32.45m0 0v19.25m0 0c0 17.921-14.528 32.45-32.45 32.45m0 0h-178.2m0 0c-17.922 0-32.45-14.529-32.45-32.45" style="stroke-width:20;" transform="rotate(-90 1257.48 247.162)"/><path d="M995.362 371.253c19.288 0 34.928-15.637 34.928-34.925m-2027.399 34.925c-19.291 0-34.921-15.637-34.921-34.925" style="stroke-width:20;" transform="rotate(-90 1257.48 247.162)"/></g></svg>
